<!-- Generated by IcoMoon.io -->
<svg version="1.1" xmlns="http://www.w3.org/2000/svg" width="768" height="768" viewBox="0 0 768 768">
<title>Location</title>
<g id="icomoon-ignore">
</g>
<path fill="#000" d="M384 607.5c124.5 0 223.5-99 223.5-223.5s-99-223.5-223.5-223.5-223.5 99-223.5 223.5 99 223.5 223.5 223.5zM670.5 352.5h66v63h-66c-15 133.5-121.5 240-255 255v66h-63v-66c-133.5-15-240-121.5-255-255h-66v-63h66c15-133.5 121.5-240 255-255v-66h63v66c133.5 15 240 121.5 255 255zM384 256.5c70.5 0 127.5 57 127.5 127.5s-57 127.5-127.5 127.5-127.5-57-127.5-127.5 57-127.5 127.5-127.5z"></path>
</svg>
